<?xml version="1.0" encoding="UTF-8" standalone="no"?>
<!DOCTYPE svg PUBLIC "-//W3C//DTD SVG 1.1//EN"
 "http://www.w3.org/Graphics/SVG/1.1/DTD/svg11.dtd">
<!-- Generated by graphviz version 2.38.0 (20140413.2041)
 -->
<!-- Title: models_diagram Pages: 1 -->
<svg width="2124pt" height="645pt"
 viewBox="0.00 0.00 2123.74 645.00" xmlns="http://www.w3.org/2000/svg" xmlns:xlink="http://www.w3.org/1999/xlink">
<g id="graph0" class="graph" transform="scale(1 1) rotate(0) translate(4 641)">
<title>models_diagram</title>
<polygon fill="none" stroke="none" points="-4,4 -4,-641 2119.74,-641 2119.74,4 -4,4"/>
<!-- CheckResult -->
<g id="node1" class="node"><title>CheckResult</title>
<path fill="none" stroke="black" d="M41.7411,-170C41.7411,-170 167.741,-170 167.741,-170 173.741,-170 179.741,-176 179.741,-182 179.741,-182 179.741,-264 179.741,-264 179.741,-270 173.741,-276 167.741,-276 167.741,-276 41.7411,-276 41.7411,-276 35.7411,-276 29.7411,-270 29.7411,-264 29.7411,-264 29.7411,-182 29.7411,-182 29.7411,-176 35.7411,-170 41.7411,-170"/>
<text text-anchor="middle" x="104.741" y="-260.8" font-family="Times New Roman,serif" font-size="14.00">CheckResult</text>
<polyline fill="none" stroke="black" points="29.7411,-253 179.741,-253 "/>
<text text-anchor="start" x="37.7411" y="-237.8" font-family="Times New Roman,serif" font-size="14.00">id :INTEGER</text>
<text text-anchor="start" x="37.7411" y="-222.8" font-family="Times New Roman,serif" font-size="14.00">value :text</text>
<text text-anchor="start" x="37.7411" y="-207.8" font-family="Times New Roman,serif" font-size="14.00">query_check_id :integer</text>
<text text-anchor="start" x="37.7411" y="-192.8" font-family="Times New Roman,serif" font-size="14.00">created_at :datetime</text>
<text text-anchor="start" x="37.7411" y="-177.8" font-family="Times New Roman,serif" font-size="14.00">updated_at :datetime</text>
</g>
<!-- Database -->
<g id="node2" class="node"><title>Database</title>
<path fill="none" stroke="black" d="M272.741,-463C272.741,-463 380.741,-463 380.741,-463 386.741,-463 392.741,-469 392.741,-475 392.741,-475 392.741,-572 392.741,-572 392.741,-578 386.741,-584 380.741,-584 380.741,-584 272.741,-584 272.741,-584 266.741,-584 260.741,-578 260.741,-572 260.741,-572 260.741,-475 260.741,-475 260.741,-469 266.741,-463 272.741,-463"/>
<text text-anchor="middle" x="326.741" y="-568.8" font-family="Times New Roman,serif" font-size="14.00">Database</text>
<polyline fill="none" stroke="black" points="260.741,-561 392.741,-561 "/>
<text text-anchor="start" x="268.741" y="-545.8" font-family="Times New Roman,serif" font-size="14.00">id :INTEGER</text>
<text text-anchor="start" x="268.741" y="-530.8" font-family="Times New Roman,serif" font-size="14.00">sid :varchar</text>
<text text-anchor="start" x="268.741" y="-515.8" font-family="Times New Roman,serif" font-size="14.00">user :varchar</text>
<text text-anchor="start" x="268.741" y="-500.8" font-family="Times New Roman,serif" font-size="14.00">pass :varchar</text>
<text text-anchor="start" x="268.741" y="-485.8" font-family="Times New Roman,serif" font-size="14.00">created_at :datetime</text>
<text text-anchor="start" x="268.741" y="-470.8" font-family="Times New Roman,serif" font-size="14.00">updated_at :datetime</text>
</g>
<!-- Environment -->
<g id="node3" class="node"><title>Environment</title>
<path fill="none" stroke="black" d="M424.741,-478C424.741,-478 532.741,-478 532.741,-478 538.741,-478 544.741,-484 544.741,-490 544.741,-490 544.741,-557 544.741,-557 544.741,-563 538.741,-569 532.741,-569 532.741,-569 424.741,-569 424.741,-569 418.741,-569 412.741,-563 412.741,-557 412.741,-557 412.741,-490 412.741,-490 412.741,-484 418.741,-478 424.741,-478"/>
<text text-anchor="middle" x="478.741" y="-553.8" font-family="Times New Roman,serif" font-size="14.00">Environment</text>
<polyline fill="none" stroke="black" points="412.741,-546 544.741,-546 "/>
<text text-anchor="start" x="420.741" y="-530.8" font-family="Times New Roman,serif" font-size="14.00">id :INTEGER</text>
<text text-anchor="start" x="420.741" y="-515.8" font-family="Times New Roman,serif" font-size="14.00">name :varchar</text>
<text text-anchor="start" x="420.741" y="-500.8" font-family="Times New Roman,serif" font-size="14.00">created_at :datetime</text>
<text text-anchor="start" x="420.741" y="-485.8" font-family="Times New Roman,serif" font-size="14.00">updated_at :datetime</text>
</g>
<!-- Installation -->
<g id="node4" class="node"><title>Installation</title>
<path fill="none" stroke="black" d="M1007.74,-448C1007.74,-448 1129.74,-448 1129.74,-448 1135.74,-448 1141.74,-454 1141.74,-460 1141.74,-460 1141.74,-587 1141.74,-587 1141.74,-593 1135.74,-599 1129.74,-599 1129.74,-599 1007.74,-599 1007.74,-599 1001.74,-599 995.741,-593 995.741,-587 995.741,-587 995.741,-460 995.741,-460 995.741,-454 1001.74,-448 1007.74,-448"/>
<text text-anchor="middle" x="1068.74" y="-583.8" font-family="Times New Roman,serif" font-size="14.00">Installation</text>
<polyline fill="none" stroke="black" points="995.741,-576 1141.74,-576 "/>
<text text-anchor="start" x="1003.74" y="-560.8" font-family="Times New Roman,serif" font-size="14.00">id :INTEGER</text>
<text text-anchor="start" x="1003.74" y="-545.8" font-family="Times New Roman,serif" font-size="14.00">release :varchar</text>
<text text-anchor="start" x="1003.74" y="-530.8" font-family="Times New Roman,serif" font-size="14.00">created_at :datetime</text>
<text text-anchor="start" x="1003.74" y="-515.8" font-family="Times New Roman,serif" font-size="14.00">updated_at :datetime</text>
<text text-anchor="start" x="1003.74" y="-500.8" font-family="Times New Roman,serif" font-size="14.00">rel_template_id :integer</text>
<text text-anchor="start" x="1003.74" y="-485.8" font-family="Times New Roman,serif" font-size="14.00">environment_id :integer</text>
<text text-anchor="start" x="1003.74" y="-470.8" font-family="Times New Roman,serif" font-size="14.00">is_started :boolean</text>
<text text-anchor="start" x="1003.74" y="-455.8" font-family="Times New Roman,serif" font-size="14.00">is_done :boolean</text>
</g>
<!-- ItemPerInstallation -->
<g id="node5" class="node"><title>ItemPerInstallation</title>
<path fill="none" stroke="black" d="M992.741,-87.5C992.741,-87.5 1144.74,-87.5 1144.74,-87.5 1150.74,-87.5 1156.74,-93.5 1156.74,-99.5 1156.74,-99.5 1156.74,-346.5 1156.74,-346.5 1156.74,-352.5 1150.74,-358.5 1144.74,-358.5 1144.74,-358.5 992.741,-358.5 992.741,-358.5 986.741,-358.5 980.741,-352.5 980.741,-346.5 980.741,-346.5 980.741,-99.5 980.741,-99.5 980.741,-93.5 986.741,-87.5 992.741,-87.5"/>
<text text-anchor="middle" x="1068.74" y="-343.3" font-family="Times New Roman,serif" font-size="14.00">ItemPerInstallation</text>
<polyline fill="none" stroke="black" points="980.741,-335.5 1156.74,-335.5 "/>
<text text-anchor="start" x="988.741" y="-320.3" font-family="Times New Roman,serif" font-size="14.00">id :INTEGER</text>
<text text-anchor="start" x="988.741" y="-305.3" font-family="Times New Roman,serif" font-size="14.00">rel_template_item_id :integer</text>
<text text-anchor="start" x="988.741" y="-290.3" font-family="Times New Roman,serif" font-size="14.00">start_time :datetime</text>
<text text-anchor="start" x="988.741" y="-275.3" font-family="Times New Roman,serif" font-size="14.00">end_time :datetime</text>
<text text-anchor="start" x="988.741" y="-260.3" font-family="Times New Roman,serif" font-size="14.00">installation_id :integer</text>
<text text-anchor="start" x="988.741" y="-245.3" font-family="Times New Roman,serif" font-size="14.00">is_done :boolean</text>
<text text-anchor="start" x="988.741" y="-230.3" font-family="Times New Roman,serif" font-size="14.00">is_started :boolean</text>
<text text-anchor="start" x="988.741" y="-215.3" font-family="Times New Roman,serif" font-size="14.00">is_error :boolean</text>
<text text-anchor="start" x="988.741" y="-200.3" font-family="Times New Roman,serif" font-size="14.00">note :text</text>
<text text-anchor="start" x="988.741" y="-185.3" font-family="Times New Roman,serif" font-size="14.00">created_at :datetime</text>
<text text-anchor="start" x="988.741" y="-170.3" font-family="Times New Roman,serif" font-size="14.00">updated_at :datetime</text>
<text text-anchor="start" x="988.741" y="-155.3" font-family="Times New Roman,serif" font-size="14.00">is_extra :boolean</text>
<text text-anchor="start" x="988.741" y="-140.3" font-family="Times New Roman,serif" font-size="14.00">is_na :boolean</text>
<text text-anchor="start" x="988.741" y="-125.3" font-family="Times New Roman,serif" font-size="14.00">command :String</text>
<text text-anchor="start" x="988.741" y="-110.3" font-family="Times New Roman,serif" font-size="14.00">job_id :String</text>
<text text-anchor="start" x="988.741" y="-95.3" font-family="Times New Roman,serif" font-size="14.00">job_res_code :String</text>
</g>
<!-- Installation&#45;&gt;ItemPerInstallation -->
<g id="edge1" class="edge"><title>Installation&#45;&gt;ItemPerInstallation</title>
<path fill="none" stroke="#bd62b4" d="M1068.74,-439.881C1068.74,-417.734 1068.74,-393.123 1068.74,-368.676"/>
<ellipse fill="none" stroke="#bd62b4" cx="1068.74" cy="-443.946" rx="4" ry="4"/>
<polygon fill="#bd62b4" stroke="#bd62b4" points="1068.74,-368.587 1073.24,-358.587 1068.74,-363.587 1068.74,-358.587 1068.74,-358.587 1068.74,-358.587 1068.74,-363.587 1064.24,-358.587 1068.74,-368.587 1068.74,-368.587"/>
</g>
<!-- RelTemplateItem -->
<g id="node13" class="node"><title>RelTemplateItem</title>
<path fill="none" stroke="black" d="M1186.74,-155C1186.74,-155 1294.74,-155 1294.74,-155 1300.74,-155 1306.74,-161 1306.74,-167 1306.74,-167 1306.74,-279 1306.74,-279 1306.74,-285 1300.74,-291 1294.74,-291 1294.74,-291 1186.74,-291 1186.74,-291 1180.74,-291 1174.74,-285 1174.74,-279 1174.74,-279 1174.74,-167 1174.74,-167 1174.74,-161 1180.74,-155 1186.74,-155"/>
<text text-anchor="middle" x="1240.74" y="-275.8" font-family="Times New Roman,serif" font-size="14.00">RelTemplateItem</text>
<polyline fill="none" stroke="black" points="1174.74,-268 1306.74,-268 "/>
<text text-anchor="start" x="1182.74" y="-252.8" font-family="Times New Roman,serif" font-size="14.00">id :INTEGER</text>
<text text-anchor="start" x="1182.74" y="-237.8" font-family="Times New Roman,serif" font-size="14.00">name :varchar</text>
<text text-anchor="start" x="1182.74" y="-222.8" font-family="Times New Roman,serif" font-size="14.00">description :varchar</text>
<text text-anchor="start" x="1182.74" y="-207.8" font-family="Times New Roman,serif" font-size="14.00">note :text</text>
<text text-anchor="start" x="1182.74" y="-192.8" font-family="Times New Roman,serif" font-size="14.00">created_at :datetime</text>
<text text-anchor="start" x="1182.74" y="-177.8" font-family="Times New Roman,serif" font-size="14.00">updated_at :datetime</text>
<text text-anchor="start" x="1182.74" y="-162.8" font-family="Times New Roman,serif" font-size="14.00">command :String</text>
</g>
<!-- Installation&#45;&gt;RelTemplateItem -->
<g id="edge2" class="edge"><title>Installation&#45;&gt;RelTemplateItem</title>
<path fill="none" stroke="#140b6b" d="M1118.92,-438.954C1134.12,-413.384 1150.74,-385.115 1165.74,-359 1176.68,-339.946 1188.3,-319.258 1199.05,-299.933"/>
<polygon fill="#140b6b" stroke="#140b6b" points="1118.73,-439.284 1109.75,-445.577 1116.17,-443.581 1113.61,-447.878 1113.61,-447.878 1113.61,-447.878 1116.17,-443.581 1117.48,-450.179 1118.73,-439.284 1118.73,-439.284"/>
<polygon fill="#140b6b" stroke="#140b6b" points="1199.07,-299.904 1207.85,-293.345 1201.49,-295.532 1203.92,-291.161 1203.92,-291.161 1203.92,-291.161 1201.49,-295.532 1199.99,-288.977 1199.07,-299.904 1199.07,-299.904"/>
</g>
<!-- Commontator::Thread -->
<g id="node18" class="node"><title>Commontator::Thread</title>
<ellipse fill="none" stroke="black" cx="871.741" cy="-223" rx="90.9839" ry="18"/>
<text text-anchor="middle" x="871.741" y="-219.3" font-family="Times New Roman,serif" font-size="14.00">Commontator::Thread</text>
</g>
<!-- Installation&#45;&gt;Commontator::Thread -->
<g id="edge3" class="edge"><title>Installation&#45;&gt;Commontator::Thread</title>
<path fill="none" stroke="#6e08cc" d="M1014.91,-440.938C971.938,-375.821 914.569,-288.894 887.345,-247.644"/>
<ellipse fill="none" stroke="#6e08cc" cx="1017.33" cy="-444.607" rx="4.00002" ry="4.00002"/>
<ellipse fill="#6e08cc" stroke="#6e08cc" cx="885.135" cy="-244.295" rx="4.00002" ry="4.00002"/>
<text text-anchor="middle" x="1000.24" y="-380.8" font-family="Times New Roman,serif" font-size="14.00">thread</text>
</g>
<!-- PublicActivity::Activity -->
<g id="node19" class="node"><title>PublicActivity::Activity</title>
<ellipse fill="none" stroke="black" cx="563.741" cy="-18" rx="94.4839" ry="18"/>
<text text-anchor="middle" x="563.741" y="-14.3" font-family="Times New Roman,serif" font-size="14.00">PublicActivity::Activity</text>
</g>
<!-- ItemPerInstallation&#45;&gt;PublicActivity::Activity -->
<g id="edge4" class="edge"><title>ItemPerInstallation&#45;&gt;PublicActivity::Activity</title>
<path fill="none" stroke="#2c19fa" d="M974.026,-88.4542C973.268,-87.9612 972.507,-87.4764 971.741,-87 920.917,-55.3869 763.283,-36.1113 659.492,-26.5103"/>
<ellipse fill="none" stroke="#2c19fa" cx="977.441" cy="-90.8248" rx="4.00002" ry="4.00002"/>
<polygon fill="#2c19fa" stroke="#2c19fa" points="659.267,-26.4899 649.716,-21.1017 654.288,-26.0365 649.308,-25.5832 649.308,-25.5832 649.308,-25.5832 654.288,-26.0365 648.9,-30.0647 659.267,-26.4899 659.267,-26.4899"/>
<text text-anchor="middle" x="951.241" y="-57.8" font-family="Times New Roman,serif" font-size="14.00">activities</text>
</g>
<!-- ItemPerTemplate -->
<g id="node6" class="node"><title>ItemPerTemplate</title>
<path fill="none" stroke="black" d="M1336.74,-170C1336.74,-170 1488.74,-170 1488.74,-170 1494.74,-170 1500.74,-176 1500.74,-182 1500.74,-182 1500.74,-264 1500.74,-264 1500.74,-270 1494.74,-276 1488.74,-276 1488.74,-276 1336.74,-276 1336.74,-276 1330.74,-276 1324.74,-270 1324.74,-264 1324.74,-264 1324.74,-182 1324.74,-182 1324.74,-176 1330.74,-170 1336.74,-170"/>
<text text-anchor="middle" x="1412.74" y="-260.8" font-family="Times New Roman,serif" font-size="14.00">ItemPerTemplate</text>
<polyline fill="none" stroke="black" points="1324.74,-253 1500.74,-253 "/>
<text text-anchor="start" x="1332.74" y="-237.8" font-family="Times New Roman,serif" font-size="14.00">id :INTEGER</text>
<text text-anchor="start" x="1332.74" y="-222.8" font-family="Times New Roman,serif" font-size="14.00">rel_template_id :integer</text>
<text text-anchor="start" x="1332.74" y="-207.8" font-family="Times New Roman,serif" font-size="14.00">rel_template_item_id :integer</text>
<text text-anchor="start" x="1332.74" y="-192.8" font-family="Times New Roman,serif" font-size="14.00">created_at :datetime</text>
<text text-anchor="start" x="1332.74" y="-177.8" font-family="Times New Roman,serif" font-size="14.00">updated_at :datetime</text>
</g>
<!-- Query -->
<g id="node7" class="node"><title>Query</title>
<path fill="none" stroke="black" d="M209.741,-170C209.741,-170 317.741,-170 317.741,-170 323.741,-170 329.741,-176 329.741,-182 329.741,-182 329.741,-264 329.741,-264 329.741,-270 323.741,-276 317.741,-276 317.741,-276 209.741,-276 209.741,-276 203.741,-276 197.741,-270 197.741,-264 197.741,-264 197.741,-182 197.741,-182 197.741,-176 203.741,-170 209.741,-170"/>
<text text-anchor="middle" x="263.741" y="-260.8" font-family="Times New Roman,serif" font-size="14.00">Query</text>
<polyline fill="none" stroke="black" points="197.741,-253 329.741,-253 "/>
<text text-anchor="start" x="205.741" y="-237.8" font-family="Times New Roman,serif" font-size="14.00">id :INTEGER</text>
<text text-anchor="start" x="205.741" y="-222.8" font-family="Times New Roman,serif" font-size="14.00">title :varchar</text>
<text text-anchor="start" x="205.741" y="-207.8" font-family="Times New Roman,serif" font-size="14.00">statment :text</text>
<text text-anchor="start" x="205.741" y="-192.8" font-family="Times New Roman,serif" font-size="14.00">created_at :datetime</text>
<text text-anchor="start" x="205.741" y="-177.8" font-family="Times New Roman,serif" font-size="14.00">updated_at :datetime</text>
</g>
<!-- Query&#45;&gt;PublicActivity::Activity -->
<g id="edge5" class="edge"><title>Query&#45;&gt;PublicActivity::Activity</title>
<path fill="none" stroke="#883795" d="M284.75,-162.61C296.835,-136.115 314.512,-106.537 338.741,-87 340.429,-85.639 439.121,-56.0915 505.222,-36.3979"/>
<ellipse fill="none" stroke="#883795" cx="283.105" cy="-166.332" rx="4.00002" ry="4.00002"/>
<polygon fill="#883795" stroke="#883795" points="505.543,-36.3024 516.411,-37.7608 510.335,-34.8752 515.127,-33.448 515.127,-33.448 515.127,-33.448 510.335,-34.8752 513.842,-29.1352 505.543,-36.3024 505.543,-36.3024"/>
<text text-anchor="middle" x="470.241" y="-57.8" font-family="Times New Roman,serif" font-size="14.00">activities</text>
</g>
<!-- ActsAsTaggableOn::Tagging -->
<g id="node20" class="node"><title>ActsAsTaggableOn::Tagging</title>
<ellipse fill="none" stroke="black" cx="334.741" cy="-18" rx="115.88" ry="18"/>
<text text-anchor="middle" x="334.741" y="-14.3" font-family="Times New Roman,serif" font-size="14.00">ActsAsTaggableOn::Tagging</text>
</g>
<!-- Query&#45;&gt;ActsAsTaggableOn::Tagging -->
<g id="edge6" class="edge"><title>Query&#45;&gt;ActsAsTaggableOn::Tagging</title>
<path fill="none" stroke="#e035c6" d="M249.97,-161.951C245.514,-127.844 245.981,-85.7543 265.741,-54 269.094,-48.6114 273.56,-44.0197 278.614,-40.1142"/>
<ellipse fill="none" stroke="#e035c6" cx="250.558" cy="-166.031" rx="4.00001" ry="4.00001"/>
<polygon fill="#e035c6" stroke="#e035c6" points="278.653,-40.0879 289.467,-38.2657 282.809,-37.3069 286.964,-34.5259 286.964,-34.5259 286.964,-34.5259 282.809,-37.3069 284.461,-30.7862 278.653,-40.0879 278.653,-40.0879"/>
<text text-anchor="middle" x="288.741" y="-57.8" font-family="Times New Roman,serif" font-size="14.00">taggings</text>
</g>
<!-- Query&#45;&gt;ActsAsTaggableOn::Tagging -->
<g id="edge8" class="edge"><title>Query&#45;&gt;ActsAsTaggableOn::Tagging</title>
<path fill="none" stroke="#51e6b7" d="M284.596,-162.372C298.066,-123.859 314.947,-75.5946 325.282,-46.0436"/>
<ellipse fill="none" stroke="#51e6b7" cx="283.254" cy="-166.21" rx="4.00001" ry="4.00001"/>
<polygon fill="#51e6b7" stroke="#51e6b7" points="325.348,-45.8574 332.897,-37.9038 326.998,-41.1377 328.649,-36.4181 328.649,-36.4181 328.649,-36.4181 326.998,-41.1377 324.401,-34.9324 325.348,-45.8574 325.348,-45.8574"/>
<text text-anchor="middle" x="356.741" y="-57.8" font-family="Times New Roman,serif" font-size="14.00">tag_taggings</text>
</g>
<!-- ActsAsTaggableOn::Tag -->
<g id="node21" class="node"><title>ActsAsTaggableOn::Tag</title>
<ellipse fill="none" stroke="black" cx="100.741" cy="-18" rx="100.983" ry="18"/>
<text text-anchor="middle" x="100.741" y="-14.3" font-family="Times New Roman,serif" font-size="14.00">ActsAsTaggableOn::Tag</text>
</g>
<!-- Query&#45;&gt;ActsAsTaggableOn::Tag -->
<g id="edge7" class="edge"><title>Query&#45;&gt;ActsAsTaggableOn::Tag</title>
<path fill="none" stroke="#2177bf" d="M241.81,-160.544C229.758,-134.578 212.368,-106.012 188.741,-87 167.05,-69.5464 150.461,-86.4168 128.741,-69 121.071,-62.85 115.151,-53.9983 110.772,-45.4469"/>
<polygon fill="#2177bf" stroke="#2177bf" points="241.94,-160.836 241.9,-171.802 243.975,-165.403 246.01,-169.97 246.01,-169.97 246.01,-169.97 243.975,-165.403 250.121,-168.138 241.94,-160.836 241.94,-160.836"/>
<polygon fill="#2177bf" stroke="#2177bf" points="110.644,-45.1678 110.562,-34.2022 108.558,-40.6237 106.472,-36.0796 106.472,-36.0796 106.472,-36.0796 108.558,-40.6237 102.382,-37.957 110.644,-45.1678 110.644,-45.1678"/>
<text text-anchor="middle" x="156.741" y="-57.8" font-family="Times New Roman,serif" font-size="14.00">base_tags</text>
</g>
<!-- Query&#45;&gt;ActsAsTaggableOn::Tag -->
<g id="edge9" class="edge"><title>Query&#45;&gt;ActsAsTaggableOn::Tag</title>
<path fill="none" stroke="#ae38c4" d="M246.857,-160.104C234.58,-125.091 214.764,-82.7082 184.741,-54 178.033,-47.5854 169.979,-42.2717 161.552,-37.8913"/>
<polygon fill="#ae38c4" stroke="#ae38c4" points="246.921,-160.293 245.859,-171.207 248.522,-165.03 250.122,-169.767 250.122,-169.767 250.122,-169.767 248.522,-165.03 254.386,-168.326 246.921,-160.293 246.921,-160.293"/>
<polygon fill="#ae38c4" stroke="#ae38c4" points="161.337,-37.7896 154.238,-29.4324 156.822,-35.6431 152.306,-33.4967 152.306,-33.4967 152.306,-33.4967 156.822,-35.6431 150.374,-37.5609 161.337,-37.7896 161.337,-37.7896"/>
<text text-anchor="middle" x="210.241" y="-57.8" font-family="Times New Roman,serif" font-size="14.00">tags</text>
</g>
<!-- QueryCheck -->
<g id="node8" class="node"><title>QueryCheck</title>
<path fill="none" stroke="black" d="M46.7411,-418C46.7411,-418 162.741,-418 162.741,-418 168.741,-418 174.741,-424 174.741,-430 174.741,-430 174.741,-617 174.741,-617 174.741,-623 168.741,-629 162.741,-629 162.741,-629 46.7411,-629 46.7411,-629 40.7411,-629 34.7411,-623 34.7411,-617 34.7411,-617 34.7411,-430 34.7411,-430 34.7411,-424 40.7411,-418 46.7411,-418"/>
<text text-anchor="middle" x="104.741" y="-613.8" font-family="Times New Roman,serif" font-size="14.00">QueryCheck</text>
<polyline fill="none" stroke="black" points="34.7411,-606 174.741,-606 "/>
<text text-anchor="start" x="42.7411" y="-590.8" font-family="Times New Roman,serif" font-size="14.00">id :INTEGER</text>
<text text-anchor="start" x="42.7411" y="-575.8" font-family="Times New Roman,serif" font-size="14.00">title :varchar</text>
<text text-anchor="start" x="42.7411" y="-560.8" font-family="Times New Roman,serif" font-size="14.00">rpt_interval :integer</text>
<text text-anchor="start" x="42.7411" y="-545.8" font-family="Times New Roman,serif" font-size="14.00">is_started :boolean</text>
<text text-anchor="start" x="42.7411" y="-530.8" font-family="Times New Roman,serif" font-size="14.00">is_paused :boolean</text>
<text text-anchor="start" x="42.7411" y="-515.8" font-family="Times New Roman,serif" font-size="14.00">statement :text</text>
<text text-anchor="start" x="42.7411" y="-500.8" font-family="Times New Roman,serif" font-size="14.00">num_exec :integer</text>
<text text-anchor="start" x="42.7411" y="-485.8" font-family="Times New Roman,serif" font-size="14.00">last_exec_dt :datetime</text>
<text text-anchor="start" x="42.7411" y="-470.8" font-family="Times New Roman,serif" font-size="14.00">created_at :datetime</text>
<text text-anchor="start" x="42.7411" y="-455.8" font-family="Times New Roman,serif" font-size="14.00">updated_at :datetime</text>
<text text-anchor="start" x="42.7411" y="-440.8" font-family="Times New Roman,serif" font-size="14.00">is_complex :boolean</text>
<text text-anchor="start" x="42.7411" y="-425.8" font-family="Times New Roman,serif" font-size="14.00">database_id :integer</text>
</g>
<!-- QueryCheck&#45;&gt;CheckResult -->
<g id="edge10" class="edge"><title>QueryCheck&#45;&gt;CheckResult</title>
<path fill="none" stroke="#6b4637" d="M104.741,-409.484C104.741,-367.786 104.741,-322.071 104.741,-286.459"/>
<ellipse fill="none" stroke="#6b4637" cx="104.741" cy="-413.68" rx="4" ry="4"/>
<polygon fill="#6b4637" stroke="#6b4637" points="104.741,-286.222 109.241,-276.222 104.741,-281.222 104.741,-276.222 104.741,-276.222 104.741,-276.222 104.741,-281.222 100.241,-276.222 104.741,-286.222 104.741,-286.222"/>
</g>
<!-- Release -->
<g id="node9" class="node"><title>Release</title>
<path fill="none" stroke="black" d="M575.741,-433C575.741,-433 683.741,-433 683.741,-433 689.741,-433 695.741,-439 695.741,-445 695.741,-445 695.741,-602 695.741,-602 695.741,-608 689.741,-614 683.741,-614 683.741,-614 575.741,-614 575.741,-614 569.741,-614 563.741,-608 563.741,-602 563.741,-602 563.741,-445 563.741,-445 563.741,-439 569.741,-433 575.741,-433"/>
<text text-anchor="middle" x="629.741" y="-598.8" font-family="Times New Roman,serif" font-size="14.00">Release</text>
<polyline fill="none" stroke="black" points="563.741,-591 695.741,-591 "/>
<text text-anchor="start" x="571.741" y="-575.8" font-family="Times New Roman,serif" font-size="14.00">id :INTEGER</text>
<text text-anchor="start" x="571.741" y="-560.8" font-family="Times New Roman,serif" font-size="14.00">rel :varchar</text>
<text text-anchor="start" x="571.741" y="-545.8" font-family="Times New Roman,serif" font-size="14.00">note :text</text>
<text text-anchor="start" x="571.741" y="-530.8" font-family="Times New Roman,serif" font-size="14.00">outcome :text</text>
<text text-anchor="start" x="571.741" y="-515.8" font-family="Times New Roman,serif" font-size="14.00">date :datetime</text>
<text text-anchor="start" x="571.741" y="-500.8" font-family="Times New Roman,serif" font-size="14.00">completed :boolean</text>
<text text-anchor="start" x="571.741" y="-485.8" font-family="Times New Roman,serif" font-size="14.00">created_at :datetime</text>
<text text-anchor="start" x="571.741" y="-470.8" font-family="Times New Roman,serif" font-size="14.00">updated_at :datetime</text>
<text text-anchor="start" x="571.741" y="-455.8" font-family="Times New Roman,serif" font-size="14.00">system_id :integer</text>
<text text-anchor="start" x="571.741" y="-440.8" font-family="Times New Roman,serif" font-size="14.00">reltype_id :integer</text>
</g>
<!-- ReleaseItem -->
<g id="node10" class="node"><title>ReleaseItem</title>
<path fill="none" stroke="black" d="M642.741,-140C642.741,-140 750.741,-140 750.741,-140 756.741,-140 762.741,-146 762.741,-152 762.741,-152 762.741,-294 762.741,-294 762.741,-300 756.741,-306 750.741,-306 750.741,-306 642.741,-306 642.741,-306 636.741,-306 630.741,-300 630.741,-294 630.741,-294 630.741,-152 630.741,-152 630.741,-146 636.741,-140 642.741,-140"/>
<text text-anchor="middle" x="696.741" y="-290.8" font-family="Times New Roman,serif" font-size="14.00">ReleaseItem</text>
<polyline fill="none" stroke="black" points="630.741,-283 762.741,-283 "/>
<text text-anchor="start" x="638.741" y="-267.8" font-family="Times New Roman,serif" font-size="14.00">id :INTEGER</text>
<text text-anchor="start" x="638.741" y="-252.8" font-family="Times New Roman,serif" font-size="14.00">name :varchar</text>
<text text-anchor="start" x="638.741" y="-237.8" font-family="Times New Roman,serif" font-size="14.00">ftype :varchar</text>
<text text-anchor="start" x="638.741" y="-222.8" font-family="Times New Roman,serif" font-size="14.00">scratchable :boolean</text>
<text text-anchor="start" x="638.741" y="-207.8" font-family="Times New Roman,serif" font-size="14.00">remove :boolean</text>
<text text-anchor="start" x="638.741" y="-192.8" font-family="Times New Roman,serif" font-size="14.00">created_at :datetime</text>
<text text-anchor="start" x="638.741" y="-177.8" font-family="Times New Roman,serif" font-size="14.00">updated_at :datetime</text>
<text text-anchor="start" x="638.741" y="-162.8" font-family="Times New Roman,serif" font-size="14.00">file_name :varchar</text>
<text text-anchor="start" x="638.741" y="-147.8" font-family="Times New Roman,serif" font-size="14.00">release_id :integer</text>
</g>
<!-- Release&#45;&gt;ReleaseItem -->
<g id="edge14" class="edge"><title>Release&#45;&gt;ReleaseItem</title>
<path fill="none" stroke="#91ef43" d="M651.664,-424.83C659.508,-389.884 668.317,-350.636 676.053,-316.169"/>
<ellipse fill="none" stroke="#91ef43" cx="650.719" cy="-429.037" rx="4.00001" ry="4.00001"/>
<polygon fill="#91ef43" stroke="#91ef43" points="676.121,-315.868 682.702,-307.097 677.216,-310.99 678.311,-306.111 678.311,-306.111 678.311,-306.111 677.216,-310.99 673.92,-305.125 676.121,-315.868 676.121,-315.868"/>
</g>
<!-- Upload -->
<g id="node15" class="node"><title>Upload</title>
<path fill="none" stroke="black" d="M360.241,-147.5C360.241,-147.5 515.241,-147.5 515.241,-147.5 521.241,-147.5 527.241,-153.5 527.241,-159.5 527.241,-159.5 527.241,-286.5 527.241,-286.5 527.241,-292.5 521.241,-298.5 515.241,-298.5 515.241,-298.5 360.241,-298.5 360.241,-298.5 354.241,-298.5 348.241,-292.5 348.241,-286.5 348.241,-286.5 348.241,-159.5 348.241,-159.5 348.241,-153.5 354.241,-147.5 360.241,-147.5"/>
<text text-anchor="middle" x="437.741" y="-283.3" font-family="Times New Roman,serif" font-size="14.00">Upload</text>
<polyline fill="none" stroke="black" points="348.241,-275.5 527.241,-275.5 "/>
<text text-anchor="start" x="356.241" y="-260.3" font-family="Times New Roman,serif" font-size="14.00">id :INTEGER</text>
<text text-anchor="start" x="356.241" y="-245.3" font-family="Times New Roman,serif" font-size="14.00">created_at :datetime</text>
<text text-anchor="start" x="356.241" y="-230.3" font-family="Times New Roman,serif" font-size="14.00">updated_at :datetime</text>
<text text-anchor="start" x="356.241" y="-215.3" font-family="Times New Roman,serif" font-size="14.00">myfile_file_name :varchar</text>
<text text-anchor="start" x="356.241" y="-200.3" font-family="Times New Roman,serif" font-size="14.00">myfile_content_type :varchar</text>
<text text-anchor="start" x="356.241" y="-185.3" font-family="Times New Roman,serif" font-size="14.00">myfile_file_size :integer</text>
<text text-anchor="start" x="356.241" y="-170.3" font-family="Times New Roman,serif" font-size="14.00">myfile_updated_at :datetime</text>
<text text-anchor="start" x="356.241" y="-155.3" font-family="Times New Roman,serif" font-size="14.00">release_id :integer</text>
</g>
<!-- Release&#45;&gt;Upload -->
<g id="edge13" class="edge"><title>Release&#45;&gt;Upload</title>
<path fill="none" stroke="#7b5dc3" d="M567.743,-426.113C543.185,-387.933 515.218,-344.453 491.532,-307.628"/>
<ellipse fill="none" stroke="#7b5dc3" cx="569.971" cy="-429.576" rx="4.00002" ry="4.00002"/>
<polygon fill="#7b5dc3" stroke="#7b5dc3" points="491.331,-307.316 489.706,-296.471 488.627,-303.111 485.922,-298.906 485.922,-298.906 485.922,-298.906 488.627,-303.111 482.137,-301.34 491.331,-307.316 491.331,-307.316"/>
</g>
<!-- Release&#45;&gt;Commontator::Thread -->
<g id="edge12" class="edge"><title>Release&#45;&gt;Commontator::Thread</title>
<path fill="none" stroke="#74acdf" d="M701.477,-442.412C724.37,-416.195 749.519,-386.687 771.741,-359 802.243,-320.997 835.524,-275.099 854.965,-247.797"/>
<ellipse fill="none" stroke="#74acdf" cx="698.651" cy="-445.642" rx="4.00002" ry="4.00002"/>
<ellipse fill="#74acdf" stroke="#74acdf" cx="857.518" cy="-244.203" rx="4.00002" ry="4.00002"/>
<text text-anchor="middle" x="775.241" y="-380.8" font-family="Times New Roman,serif" font-size="14.00">thread</text>
</g>
<!-- Release&#45;&gt;PublicActivity::Activity -->
<g id="edge11" class="edge"><title>Release&#45;&gt;PublicActivity::Activity</title>
<path fill="none" stroke="#ac2853" d="M590.195,-424.81C583.105,-403.451 576.716,-380.727 572.741,-359 551.776,-244.408 557.779,-104.512 561.636,-46.3678"/>
<ellipse fill="none" stroke="#ac2853" cx="591.553" cy="-428.824" rx="4.00001" ry="4.00001"/>
<polygon fill="#ac2853" stroke="#ac2853" points="561.651,-46.1489 566.836,-36.4864 561.999,-41.1611 562.347,-36.1732 562.347,-36.1732 562.347,-36.1732 561.999,-41.1611 557.858,-35.86 561.651,-46.1489 561.651,-46.1489"/>
<text text-anchor="middle" x="597.241" y="-219.3" font-family="Times New Roman,serif" font-size="14.00">activities</text>
</g>
<!-- Reltype -->
<g id="node11" class="node"><title>Reltype</title>
<path fill="none" stroke="black" d="M1363.74,-463C1363.74,-463 1471.74,-463 1471.74,-463 1477.74,-463 1483.74,-469 1483.74,-475 1483.74,-475 1483.74,-572 1483.74,-572 1483.74,-578 1477.74,-584 1471.74,-584 1471.74,-584 1363.74,-584 1363.74,-584 1357.74,-584 1351.74,-578 1351.74,-572 1351.74,-572 1351.74,-475 1351.74,-475 1351.74,-469 1357.74,-463 1363.74,-463"/>
<text text-anchor="middle" x="1417.74" y="-568.8" font-family="Times New Roman,serif" font-size="14.00">Reltype</text>
<polyline fill="none" stroke="black" points="1351.74,-561 1483.74,-561 "/>
<text text-anchor="start" x="1359.74" y="-545.8" font-family="Times New Roman,serif" font-size="14.00">id :INTEGER</text>
<text text-anchor="start" x="1359.74" y="-530.8" font-family="Times New Roman,serif" font-size="14.00">name :varchar</text>
<text text-anchor="start" x="1359.74" y="-515.8" font-family="Times New Roman,serif" font-size="14.00">color :varchar</text>
<text text-anchor="start" x="1359.74" y="-500.8" font-family="Times New Roman,serif" font-size="14.00">short :varchar</text>
<text text-anchor="start" x="1359.74" y="-485.8" font-family="Times New Roman,serif" font-size="14.00">created_at :datetime</text>
<text text-anchor="start" x="1359.74" y="-470.8" font-family="Times New Roman,serif" font-size="14.00">updated_at :datetime</text>
</g>
<!-- RelTemplate -->
<g id="node12" class="node"><title>RelTemplate</title>
<path fill="none" stroke="black" d="M1209.74,-478C1209.74,-478 1317.74,-478 1317.74,-478 1323.74,-478 1329.74,-484 1329.74,-490 1329.74,-490 1329.74,-557 1329.74,-557 1329.74,-563 1323.74,-569 1317.74,-569 1317.74,-569 1209.74,-569 1209.74,-569 1203.74,-569 1197.74,-563 1197.74,-557 1197.74,-557 1197.74,-490 1197.74,-490 1197.74,-484 1203.74,-478 1209.74,-478"/>
<text text-anchor="middle" x="1263.74" y="-553.8" font-family="Times New Roman,serif" font-size="14.00">RelTemplate</text>
<polyline fill="none" stroke="black" points="1197.74,-546 1329.74,-546 "/>
<text text-anchor="start" x="1205.74" y="-530.8" font-family="Times New Roman,serif" font-size="14.00">id :INTEGER</text>
<text text-anchor="start" x="1205.74" y="-515.8" font-family="Times New Roman,serif" font-size="14.00">name :varchar</text>
<text text-anchor="start" x="1205.74" y="-500.8" font-family="Times New Roman,serif" font-size="14.00">created_at :datetime</text>
<text text-anchor="start" x="1205.74" y="-485.8" font-family="Times New Roman,serif" font-size="14.00">updated_at :datetime</text>
</g>
<!-- RelTemplate&#45;&gt;ItemPerTemplate -->
<g id="edge15" class="edge"><title>RelTemplate&#45;&gt;ItemPerTemplate</title>
<path fill="none" stroke="#1ad6bc" d="M1289.62,-470.653C1315.37,-419.068 1354.88,-339.921 1382.16,-285.262"/>
<ellipse fill="none" stroke="#1ad6bc" cx="1287.83" cy="-474.233" rx="4.00002" ry="4.00002"/>
<polygon fill="#1ad6bc" stroke="#1ad6bc" points="1382.3,-284.979 1390.79,-278.042 1384.54,-280.506 1386.77,-276.032 1386.77,-276.032 1386.77,-276.032 1384.54,-280.506 1382.74,-274.022 1382.3,-284.979 1382.3,-284.979"/>
</g>
<!-- RelTemplate&#45;&gt;RelTemplateItem -->
<g id="edge16" class="edge"><title>RelTemplate&#45;&gt;RelTemplateItem</title>
<path fill="none" stroke="#132656" d="M1259.51,-467.57C1255.91,-420.928 1250.72,-353.463 1246.7,-301.358"/>
<polygon fill="#132656" stroke="#132656" points="1259.53,-467.841 1255.81,-478.157 1259.91,-472.826 1260.3,-477.812 1260.3,-477.812 1260.3,-477.812 1259.91,-472.826 1264.78,-477.466 1259.53,-467.841 1259.53,-467.841"/>
<polygon fill="#132656" stroke="#132656" points="1246.68,-301.122 1250.4,-290.806 1246.3,-296.137 1245.92,-291.152 1245.92,-291.152 1245.92,-291.152 1246.3,-296.137 1241.43,-291.498 1246.68,-301.122 1246.68,-301.122"/>
</g>
<!-- System -->
<g id="node14" class="node"><title>System</title>
<path fill="none" stroke="black" d="M1574.74,-463C1574.74,-463 1682.74,-463 1682.74,-463 1688.74,-463 1694.74,-469 1694.74,-475 1694.74,-475 1694.74,-572 1694.74,-572 1694.74,-578 1688.74,-584 1682.74,-584 1682.74,-584 1574.74,-584 1574.74,-584 1568.74,-584 1562.74,-578 1562.74,-572 1562.74,-572 1562.74,-475 1562.74,-475 1562.74,-469 1568.74,-463 1574.74,-463"/>
<text text-anchor="middle" x="1628.74" y="-568.8" font-family="Times New Roman,serif" font-size="14.00">System</text>
<polyline fill="none" stroke="black" points="1562.74,-561 1694.74,-561 "/>
<text text-anchor="start" x="1570.74" y="-545.8" font-family="Times New Roman,serif" font-size="14.00">id :INTEGER</text>
<text text-anchor="start" x="1570.74" y="-530.8" font-family="Times New Roman,serif" font-size="14.00">name :varchar</text>
<text text-anchor="start" x="1570.74" y="-515.8" font-family="Times New Roman,serif" font-size="14.00">color :varchar</text>
<text text-anchor="start" x="1570.74" y="-500.8" font-family="Times New Roman,serif" font-size="14.00">short :varchar</text>
<text text-anchor="start" x="1570.74" y="-485.8" font-family="Times New Roman,serif" font-size="14.00">created_at :datetime</text>
<text text-anchor="start" x="1570.74" y="-470.8" font-family="Times New Roman,serif" font-size="14.00">updated_at :datetime</text>
</g>
<!-- User -->
<g id="node16" class="node"><title>User</title>
<path fill="none" stroke="black" d="M1755.74,-410.5C1755.74,-410.5 1937.74,-410.5 1937.74,-410.5 1943.74,-410.5 1949.74,-416.5 1949.74,-422.5 1949.74,-422.5 1949.74,-624.5 1949.74,-624.5 1949.74,-630.5 1943.74,-636.5 1937.74,-636.5 1937.74,-636.5 1755.74,-636.5 1755.74,-636.5 1749.74,-636.5 1743.74,-630.5 1743.74,-624.5 1743.74,-624.5 1743.74,-422.5 1743.74,-422.5 1743.74,-416.5 1749.74,-410.5 1755.74,-410.5"/>
<text text-anchor="middle" x="1846.74" y="-621.3" font-family="Times New Roman,serif" font-size="14.00">User</text>
<polyline fill="none" stroke="black" points="1743.74,-613.5 1949.74,-613.5 "/>
<text text-anchor="start" x="1751.74" y="-598.3" font-family="Times New Roman,serif" font-size="14.00">id :INTEGER</text>
<text text-anchor="start" x="1751.74" y="-583.3" font-family="Times New Roman,serif" font-size="14.00">email :varchar</text>
<text text-anchor="start" x="1751.74" y="-568.3" font-family="Times New Roman,serif" font-size="14.00">encrypted_password :varchar</text>
<text text-anchor="start" x="1751.74" y="-553.3" font-family="Times New Roman,serif" font-size="14.00">reset_password_token :varchar</text>
<text text-anchor="start" x="1751.74" y="-538.3" font-family="Times New Roman,serif" font-size="14.00">reset_password_sent_at :datetime</text>
<text text-anchor="start" x="1751.74" y="-523.3" font-family="Times New Roman,serif" font-size="14.00">remember_created_at :datetime</text>
<text text-anchor="start" x="1751.74" y="-508.3" font-family="Times New Roman,serif" font-size="14.00">sign_in_count :integer</text>
<text text-anchor="start" x="1751.74" y="-493.3" font-family="Times New Roman,serif" font-size="14.00">current_sign_in_at :datetime</text>
<text text-anchor="start" x="1751.74" y="-478.3" font-family="Times New Roman,serif" font-size="14.00">last_sign_in_at :datetime</text>
<text text-anchor="start" x="1751.74" y="-463.3" font-family="Times New Roman,serif" font-size="14.00">current_sign_in_ip :varchar</text>
<text text-anchor="start" x="1751.74" y="-448.3" font-family="Times New Roman,serif" font-size="14.00">last_sign_in_ip :varchar</text>
<text text-anchor="start" x="1751.74" y="-433.3" font-family="Times New Roman,serif" font-size="14.00">created_at :datetime</text>
<text text-anchor="start" x="1751.74" y="-418.3" font-family="Times New Roman,serif" font-size="14.00">updated_at :datetime</text>
</g>
<!-- Commontator::Comment -->
<g id="node22" class="node"><title>Commontator::Comment</title>
<ellipse fill="none" stroke="black" cx="1619.74" cy="-223" rx="100.983" ry="18"/>
<text text-anchor="middle" x="1619.74" y="-219.3" font-family="Times New Roman,serif" font-size="14.00">Commontator::Comment</text>
</g>
<!-- User&#45;&gt;Commontator::Comment -->
<g id="edge17" class="edge"><title>User&#45;&gt;Commontator::Comment</title>
<path fill="none" stroke="#a1ad5e" d="M1756.13,-403.349C1712.8,-346.364 1664.82,-283.272 1638.9,-249.193"/>
<ellipse fill="none" stroke="#a1ad5e" cx="1758.82" cy="-406.891" rx="4.00002" ry="4.00002"/>
<polygon fill="#a1ad5e" stroke="#a1ad5e" points="1638.86,-249.135 1636.38,-238.451 1635.83,-245.155 1632.8,-241.175 1632.8,-241.175 1632.8,-241.175 1635.83,-245.155 1629.22,-243.899 1638.86,-249.135 1638.86,-249.135"/>
<text text-anchor="middle" x="1776.74" y="-380.8" font-family="Times New Roman,serif" font-size="14.00">comments</text>
</g>
<!-- Commontator::Subscription -->
<g id="node23" class="node"><title>Commontator::Subscription</title>
<ellipse fill="none" stroke="black" cx="1850.74" cy="-223" rx="111.581" ry="18"/>
<text text-anchor="middle" x="1850.74" y="-219.3" font-family="Times New Roman,serif" font-size="14.00">Commontator::Subscription</text>
</g>
<!-- User&#45;&gt;Commontator::Subscription -->
<g id="edge18" class="edge"><title>User&#45;&gt;Commontator::Subscription</title>
<path fill="none" stroke="#9b96ed" d="M1848.36,-401.846C1849.1,-346.419 1849.92,-285.525 1850.38,-251.307"/>
<ellipse fill="none" stroke="#9b96ed" cx="1848.3" cy="-406.076" rx="4" ry="4"/>
<polygon fill="#9b96ed" stroke="#9b96ed" points="1850.38,-251.174 1855.01,-241.236 1850.44,-246.175 1850.51,-241.175 1850.51,-241.175 1850.51,-241.175 1850.44,-246.175 1846.01,-241.115 1850.38,-251.174 1850.38,-251.174"/>
<text text-anchor="middle" x="1886.74" y="-380.8" font-family="Times New Roman,serif" font-size="14.00">subscriptions</text>
</g>
<!-- Webservice -->
<g id="node17" class="node"><title>Webservice</title>
<path fill="none" stroke="black" d="M1979.74,-410.5C1979.74,-410.5 2103.74,-410.5 2103.74,-410.5 2109.74,-410.5 2115.74,-416.5 2115.74,-422.5 2115.74,-422.5 2115.74,-624.5 2115.74,-624.5 2115.74,-630.5 2109.74,-636.5 2103.74,-636.5 2103.74,-636.5 1979.74,-636.5 1979.74,-636.5 1973.74,-636.5 1967.74,-630.5 1967.74,-624.5 1967.74,-624.5 1967.74,-422.5 1967.74,-422.5 1967.74,-416.5 1973.74,-410.5 1979.74,-410.5"/>
<text text-anchor="middle" x="2041.74" y="-621.3" font-family="Times New Roman,serif" font-size="14.00">Webservice</text>
<polyline fill="none" stroke="black" points="1967.74,-613.5 2115.74,-613.5 "/>
<text text-anchor="start" x="1975.74" y="-598.3" font-family="Times New Roman,serif" font-size="14.00">id :INTEGER</text>
<text text-anchor="start" x="1975.74" y="-583.3" font-family="Times New Roman,serif" font-size="14.00">name :varchar</text>
<text text-anchor="start" x="1975.74" y="-568.3" font-family="Times New Roman,serif" font-size="14.00">int_endpoint :varchar</text>
<text text-anchor="start" x="1975.74" y="-553.3" font-family="Times New Roman,serif" font-size="14.00">bs :varchar</text>
<text text-anchor="start" x="1975.74" y="-538.3" font-family="Times New Roman,serif" font-size="14.00">bs_method :varchar</text>
<text text-anchor="start" x="1975.74" y="-523.3" font-family="Times New Roman,serif" font-size="14.00">applet :varchar</text>
<text text-anchor="start" x="1975.74" y="-508.3" font-family="Times New Roman,serif" font-size="14.00">applet_method :varchar</text>
<text text-anchor="start" x="1975.74" y="-493.3" font-family="Times New Roman,serif" font-size="14.00">description :text</text>
<text text-anchor="start" x="1975.74" y="-478.3" font-family="Times New Roman,serif" font-size="14.00">created_at :datetime</text>
<text text-anchor="start" x="1975.74" y="-463.3" font-family="Times New Roman,serif" font-size="14.00">updated_at :datetime</text>
<text text-anchor="start" x="1975.74" y="-448.3" font-family="Times New Roman,serif" font-size="14.00">comments :text</text>
<text text-anchor="start" x="1975.74" y="-433.3" font-family="Times New Roman,serif" font-size="14.00">involvedflow :text</text>
<text text-anchor="start" x="1975.74" y="-418.3" font-family="Times New Roman,serif" font-size="14.00">workflow :text</text>
</g>
</g>
</svg>
